<svg xmlns="http://www.w3.org/2000/svg" viewBox="0 0 32 32" width="32" height="32">
  <!-- Background circle -->
  <circle cx="16" cy="16" r="15" fill="#3B82F6" stroke="#1E40AF" stroke-width="1"/>
  
  <!-- Sun rays -->
  <g fill="#FBBF24" opacity="0.9">
    <path d="M16 2 L18 6 L22 6 L19 9 L20 13 L16 11 L12 13 L13 9 L10 6 L14 6 Z"/>
    <path d="M16 30 L18 26 L22 26 L19 23 L20 19 L16 21 L12 19 L13 23 L10 26 L14 26 Z"/>
    <path d="M2 16 L6 18 L6 22 L9 19 L13 20 L11 16 L13 12 L9 13 L6 10 L6 14 Z"/>
    <path d="M30 16 L26 18 L26 22 L23 19 L19 20 L21 16 L19 12 L23 13 L26 10 L26 14 Z"/>
  </g>
  
  <!-- Cloud -->
  <g fill="#FFFFFF" opacity="0.95">
    <ellipse cx="16" cy="18" rx="8" ry="4"/>
    <ellipse cx="12" cy="16" rx="4" ry="3"/>
    <ellipse cx="20" cy="16" rx="4" ry="3"/>
    <ellipse cx="14" cy="14" rx="3" ry="2"/>
    <ellipse cx="18" cy="14" rx="3" ry="2"/>
  </g>
  
  <!-- Weather icon (thermometer) -->
  <g fill="#EF4444" opacity="0.8">
    <rect x="14" y="20" width="4" height="6" rx="2"/>
    <circle cx="16" cy="28" r="2"/>
    <rect x="15" y="21" width="2" height="4" fill="#FFFFFF"/>
  </g>
</svg>
